<svg width="71" height="14" viewBox="0 0 71 14" fill="none" xmlns="http://www.w3.org/2000/svg">
<path opacity="0.6" d="M1 0H0V14H1V0Z" fill="#F0F0E8"/>
<path opacity="0.6" d="M3 0H2V14H3V0Z" fill="#F0F0E8"/>
<path opacity="0.9" d="M6 0H4V14H6V0Z" fill="#F0F0E8"/>
<path opacity="0.6" d="M8 0H7V14H8V0Z" fill="#F0F0E8"/>
<path opacity="0.3" d="M10 2.79999H9V11.2H10V2.79999Z" fill="#F0F0E8"/>
<path opacity="0.9" d="M13 0H11V14H13V0Z" fill="#F0F0E8"/>
<path opacity="0.6" d="M15 0H14V14H15V0Z" fill="#F0F0E8"/>
<path opacity="0.6" d="M17 0H16V14H17V0Z" fill="#F0F0E8"/>
<path opacity="0.9" d="M20 0H18V14H20V0Z" fill="#F0F0E8"/>
<path opacity="0.3" d="M22 2.79999H21V11.2H22V2.79999Z" fill="#F0F0E8"/>
<path opacity="0.6" d="M24 0H23V14H24V0Z" fill="#F0F0E8"/>
<path opacity="0.9" d="M27 0H25V14H27V0Z" fill="#F0F0E8"/>
<path opacity="0.6" d="M29 0H28V14H29V0Z" fill="#F0F0E8"/>
<path opacity="0.6" d="M31 0H30V14H31V0Z" fill="#F0F0E8"/>
<path opacity="0.3" d="M33 2.79999H32V11.2H33V2.79999Z" fill="#F0F0E8"/>
<path opacity="0.6" d="M35 0H34V14H35V0Z" fill="#F0F0E8"/>
<path opacity="0.6" d="M37 0H36V14H37V0Z" fill="#F0F0E8"/>
<path opacity="0.9" d="M40 0H38V14H40V0Z" fill="#F0F0E8"/>
<path opacity="0.6" d="M42 0H41V14H42V0Z" fill="#F0F0E8"/>
<path opacity="0.3" d="M44 2.79999H43V11.2H44V2.79999Z" fill="#F0F0E8"/>
<path opacity="0.9" d="M47 0H45V14H47V0Z" fill="#F0F0E8"/>
<path opacity="0.6" d="M49 0H48V14H49V0Z" fill="#F0F0E8"/>
<path opacity="0.6" d="M51 0H50V14H51V0Z" fill="#F0F0E8"/>
<path opacity="0.9" d="M54 0H52V14H54V0Z" fill="#F0F0E8"/>
<path opacity="0.3" d="M56 2.79999H55V11.2H56V2.79999Z" fill="#F0F0E8"/>
<path opacity="0.6" d="M58 0H57V14H58V0Z" fill="#F0F0E8"/>
<path opacity="0.9" d="M61 0H59V14H61V0Z" fill="#F0F0E8"/>
<path opacity="0.6" d="M63 0H62V14H63V0Z" fill="#F0F0E8"/>
<path opacity="0.6" d="M65 0H64V14H65V0Z" fill="#F0F0E8"/>
<path opacity="0.3" d="M67 2.79999H66V11.2H67V2.79999Z" fill="#F0F0E8"/>
<path opacity="0.6" d="M69 0H68V14H69V0Z" fill="#F0F0E8"/>
<path opacity="0.6" d="M71 0H70V14H71V0Z" fill="#F0F0E8"/>
</svg>
